<svg xmlns="http://www.w3.org/2000/svg" width="18" height="19" viewBox="0 0 18 19" fill="none">
  <path d="M9.97461 0.712891L10.0498 0.808594L16.835 9.43652L16.9561 9.59082L16.8359 9.74512L10.0791 18.374L10.0039 18.4697H6.26562L6.58594 18.0645L11.3242 12.0684C11.526 11.8064 11.7565 11.5553 12.0156 11.3154C12.1607 11.1704 12.295 11.0426 12.418 10.9326C12.2606 10.947 12.0861 10.9614 11.8955 10.9805L11.8838 10.9824V10.9814C11.4904 11.0011 11.1253 11.0117 10.7891 11.0117H0.886719V8.17188H10.7891C11.1264 8.17188 11.491 8.19166 11.8828 8.23047H11.8838C12.0795 8.24026 12.2597 8.25174 12.4238 8.2666C12.3219 8.16998 12.205 8.05652 12.0742 7.92578L12.0674 7.91797C11.8315 7.66246 11.5859 7.38783 11.3311 7.09375L11.3242 7.08496L6.58594 1.11816L6.26367 0.712891H9.97461Z" fill="#FFD922" stroke="#FFD922" stroke-width="0.5"/>
</svg>