<svg xmlns="http://www.w3.org/2000/svg" width="17" height="17" viewBox="0 0 17 17" fill="none">
  <path d="M4.97794 16.5132L2.19424 14.5767L3.4348 12.7915C3.73737 12.3477 4.11055 11.9141 4.55433 11.4904C5.01828 11.0668 5.47215 10.6735 5.91592 10.3104C6.37987 9.94731 6.77322 9.64473 7.09597 9.40267L7.03545 9.22112C6.61185 9.22112 6.10755 9.20095 5.52257 9.16061C4.95776 9.12026 4.37278 9.04966 3.76763 8.9488C3.18265 8.82777 2.6481 8.68657 2.16398 8.5252L0.136719 7.79901L1.31677 4.59171L3.31377 5.31789C3.79789 5.47926 4.30218 5.72133 4.82665 6.04407C5.35111 6.36682 5.84532 6.69966 6.30927 7.04257C6.79339 7.38549 7.19683 7.69816 7.51958 7.98056L7.67086 7.85953C7.54983 7.43592 7.39855 6.94172 7.217 6.37691C7.05563 5.8121 6.91442 5.21703 6.79339 4.59171C6.67236 3.96638 6.61185 3.39149 6.61185 2.86702V0.688477H10.0007V2.86702C10.0007 3.39149 9.94018 3.96638 9.81915 4.59171C9.69812 5.21703 9.55692 5.8121 9.39555 6.37691C9.23417 6.94172 9.0728 7.43592 8.91143 7.85953L9.06271 7.9503C9.38546 7.6679 9.77881 7.36532 10.2428 7.04257C10.7269 6.69966 11.2312 6.36682 11.7556 6.04407C12.2801 5.72133 12.7844 5.47926 13.2685 5.31789L15.2958 4.59171L16.4758 7.79901L14.4183 8.5252C13.9544 8.68657 13.4198 8.82777 12.8147 8.9488C12.2297 9.04966 11.6548 9.12026 11.09 9.16061C10.5252 9.20095 10.0209 9.22112 9.57709 9.22112L9.51658 9.40267C9.83933 9.64473 10.2226 9.95739 10.6664 10.3407C11.1303 10.7037 11.5842 11.0971 12.028 11.5207C12.4919 11.9443 12.8651 12.3679 13.1475 12.7915L14.3881 14.5767L11.6044 16.5132L10.3638 14.728C10.0612 14.3044 9.77881 13.8102 9.51658 13.2454C9.27452 12.6604 9.05263 12.0855 8.85091 11.5207C8.66936 10.9559 8.51808 10.4819 8.39705 10.0986H8.2155C8.09447 10.4819 7.9331 10.9559 7.73138 11.5207C7.54983 12.0855 7.32794 12.6604 7.06571 13.2454C6.82365 13.8102 6.54125 14.3044 6.2185 14.728L4.97794 16.5132Z" fill="#FFD922"/>
</svg>