<svg xmlns="http://www.w3.org/2000/svg" width="52" height="29" viewBox="0 0 52 29" fill="none">
  <path d="M22.342 22.7476V7.7067H29.4439C30.1469 7.7067 30.7781 7.82881 31.3377 8.07303C31.8972 8.30288 32.3707 8.62611 32.7581 9.04272C33.1598 9.45932 33.4682 9.9693 33.6834 10.5727C33.8987 11.1617 34.0063 11.8081 34.0063 12.512C34.0063 13.2303 33.8987 13.884 33.6834 14.473C33.4682 15.062 33.1598 15.5648 32.7581 15.9814C32.3707 16.398 31.8972 16.7284 31.3377 16.9726C30.7781 17.2024 30.1469 17.3174 29.4439 17.3174H25.6132V22.7476H22.342ZM25.6132 14.473H29.0565C29.5443 14.473 29.9245 14.3509 30.1971 14.1066C30.484 13.8481 30.6275 13.4745 30.6275 12.9861V12.038C30.6275 11.5495 30.484 11.1832 30.1971 10.939C29.9245 10.6804 29.5443 10.5511 29.0565 10.5511H25.6132V14.473Z" fill="#FFD922"/>
  <path d="M14.2067 23.0062C12.8868 23.0062 11.7677 22.7835 10.8495 22.3382C9.93129 21.8785 9.14937 21.2895 8.50375 20.5712L10.6558 18.3948C11.6745 19.5441 12.9298 20.1187 14.4219 20.1187C15.2254 20.1187 15.8208 19.9535 16.2082 19.6231C16.5955 19.2927 16.7892 18.8545 16.7892 18.3086C16.7892 17.892 16.6744 17.5472 16.4449 17.2743C16.2153 16.987 15.749 16.793 15.046 16.6925L13.5611 16.4985C11.9686 16.2974 10.7993 15.8162 10.0532 15.0548C9.32154 14.2934 8.95568 13.2806 8.95568 12.0164C8.95568 11.3412 9.08481 10.7235 9.34306 10.1632C9.6013 9.60299 9.96716 9.12173 10.4406 8.71949C10.9284 8.31725 11.5166 8.00839 12.2053 7.79291C12.9083 7.56305 13.7046 7.44813 14.5941 7.44813C15.7275 7.44813 16.7247 7.6277 17.5855 7.98684C18.4463 8.34598 19.1852 8.87033 19.8021 9.55989L17.6285 11.7578C17.2698 11.3412 16.8323 11.0036 16.3158 10.7451C15.8136 10.4721 15.1752 10.3356 14.4004 10.3356C13.6687 10.3356 13.1235 10.4649 12.7648 10.7235C12.4062 10.9821 12.2268 11.3412 12.2268 11.8009C12.2268 12.3181 12.3631 12.6916 12.6357 12.9215C12.9227 13.1513 13.3818 13.3165 14.013 13.4171L15.498 13.6541C17.0475 13.8983 18.1952 14.3796 18.9413 15.0979C19.6873 15.8018 20.0604 16.8074 20.0604 18.1147C20.0604 18.833 19.9312 19.4938 19.673 20.0972C19.4147 20.7005 19.0345 21.2177 18.5324 21.6487C18.0446 22.0796 17.4348 22.4172 16.7031 22.6614C15.9714 22.8913 15.1393 23.0062 14.2067 23.0062Z" fill="#FFD922"/>
  <path d="M36.121 18.9723C36.121 18.6248 36.4023 18.3431 36.7494 18.3431H39.8914C40.2384 18.3431 40.5198 18.6248 40.5198 18.9723V22.1184C40.5198 22.4659 40.2384 22.7476 39.8914 22.7476H36.7494C36.4023 22.7476 36.121 22.4659 36.121 22.1184V18.9723Z" fill="#FFD922"/>
  <path fill-rule="evenodd" clip-rule="evenodd" d="M38.0181 28.6465H13.9819L13.8011 28.6453C6.16246 28.5484 0 22.3181 0 14.6465C0 6.9145 6.2599 0.646485 13.9819 0.646484H38.0181C45.7401 0.646484 52 6.9145 52 14.6465C52 22.3181 45.8375 28.5484 38.1988 28.6453L38.0181 28.6465ZM38.0181 26.1296H13.9819C7.64812 26.1296 2.51359 20.9885 2.51359 14.6465C2.51359 8.30452 7.64812 3.16334 13.9819 3.16334H38.0181C44.3519 3.16334 49.4864 8.30452 49.4864 14.6465C49.4864 20.9885 44.3519 26.1296 38.0181 26.1296Z" fill="#FFD922"/>
</svg>